<?xml version="1.0" encoding="UTF-8" standalone="no"?>
<svg
   xmlns:dc="http://purl.org/dc/elements/1.1/"
   xmlns:cc="http://creativecommons.org/ns#"
   xmlns:rdf="http://www.w3.org/1999/02/22-rdf-syntax-ns#"
   xmlns:svg="http://www.w3.org/2000/svg"
   xmlns="http://www.w3.org/2000/svg"
   xmlns:sodipodi="http://sodipodi.sourceforge.net/DTD/sodipodi-0.dtd"
   xmlns:inkscape="http://www.inkscape.org/namespaces/inkscape"
   version="1.1"
   viewBox="0 0 212.755 212.755"
   enable-background="new 0 0 212.755 212.755"
   id="svg2"
   inkscape:version="0.91 r13725"
   sodipodi:docname="coin.svg">
  <metadata
     id="metadata14">
    <rdf:RDF>
      <cc:Work
         rdf:about="">
        <dc:format>image/svg+xml</dc:format>
        <dc:type
           rdf:resource="http://purl.org/dc/dcmitype/StillImage" />
      </cc:Work>
    </rdf:RDF>
  </metadata>
  <defs
     id="defs12" />
  <sodipodi:namedview
     pagecolor="#ffffff"
     bordercolor="#666666"
     borderopacity="1"
     objecttolerance="10"
     gridtolerance="10"
     guidetolerance="10"
     inkscape:pageopacity="0"
     inkscape:pageshadow="2"
     inkscape:window-width="747"
     inkscape:window-height="480"
     id="namedview10"
     showgrid="false"
     inkscape:zoom="1.1092571"
     inkscape:cx="106.3775"
     inkscape:cy="106.3775"
     inkscape:window-x="0"
     inkscape:window-y="0"
     inkscape:window-maximized="0"
     inkscape:current-layer="svg2" />
  <g
     id="g4"
     style="fill:#f0e1e1;fill-opacity:1">
    <path
       d="M106.377,0C47.721,0,0,47.721,0,106.377s47.721,106.377,106.377,106.377s106.377-47.721,106.377-106.377   S165.034,0,106.377,0z M106.377,198.755C55.44,198.755,14,157.314,14,106.377S55.44,14,106.377,14s92.377,41.44,92.377,92.377   S157.314,198.755,106.377,198.755z"
       id="path6"
       style="fill:#f0e1e1;fill-opacity:1" />
    <path
       d="m113.377,100.096v-39.744c3.961,1.471 7.417,4.17 9.82,7.82 2.127,3.229 6.468,4.123 9.696,1.997 3.229-2.126 4.123-6.467 1.996-9.696-5.029-7.636-12.778-12.82-21.512-14.647v-11.12c0-3.866-3.134-7-7-7s-7,3.134-7,7v11.099c-15.493,3.23-27.168,16.989-27.168,33.426 0,16.437 11.676,30.198 27.168,33.428v39.744c-3.961-1.471-7.417-4.17-9.82-7.82-2.127-3.229-6.468-4.124-9.696-1.997-3.229,2.126-4.123,6.467-1.996,9.696 5.029,7.636 12.778,12.82 21.512,14.647v11.119c0,3.866 3.134,7 7,7s7-3.134 7-7v-11.098c15.493-3.23 27.168-16.989 27.168-33.426-2.84217e-14-16.437-11.675-30.198-27.168-33.428zm-27.168-20.865c0-8.653 5.494-16.027 13.168-18.874v37.748c-7.674-2.847-13.168-10.221-13.168-18.874zm27.168,73.166v-37.748c7.674,2.847 13.168,10.221 13.168,18.874s-5.493,16.027-13.168,18.874z"
       id="path8"
       style="fill:#f0e1e1;fill-opacity:1" />
  </g>
</svg>
