<?xml version="1.0" encoding="UTF-8" standalone="no"?>
<svg
   xmlns:dc="http://purl.org/dc/elements/1.1/"
   xmlns:cc="http://creativecommons.org/ns#"
   xmlns:rdf="http://www.w3.org/1999/02/22-rdf-syntax-ns#"
   xmlns:svg="http://www.w3.org/2000/svg"
   xmlns="http://www.w3.org/2000/svg"
   xmlns:sodipodi="http://sodipodi.sourceforge.net/DTD/sodipodi-0.dtd"
   xmlns:inkscape="http://www.inkscape.org/namespaces/inkscape"
   version="1"
   width="64.892464mm"
   height="67.732307mm"
   viewBox="0 0 47.737811 49.847995"
   id="svg2"
   inkscape:version="0.91 r13725"
   sodipodi:docname="logo-2.svg">
  <metadata
     id="metadata40">
    <rdf:RDF>
      <cc:Work
         rdf:about="">
        <dc:format>image/svg+xml</dc:format>
        <dc:type
           rdf:resource="http://purl.org/dc/dcmitype/StillImage" />
        <dc:title></dc:title>
      </cc:Work>
    </rdf:RDF>
  </metadata>
  <defs
     id="defs38" />
  <sodipodi:namedview
     pagecolor="#ffffff"
     bordercolor="#666666"
     borderopacity="1"
     objecttolerance="10"
     gridtolerance="10"
     guidetolerance="10"
     inkscape:pageopacity="0"
     inkscape:pageshadow="2"
     inkscape:window-width="1160"
     inkscape:window-height="599"
     id="namedview36"
     showgrid="false"
     inkscape:snap-path-clip="true"
     units="mm"
     fit-margin-top="0"
     fit-margin-left="0"
     fit-margin-right="0"
     fit-margin-bottom="0"
     inkscape:zoom="0.36816406"
     inkscape:cx="-281.67161"
     inkscape:cy="346.08563"
     inkscape:window-x="0"
     inkscape:window-y="0"
     inkscape:window-maximized="0"
     inkscape:current-layer="svg2" />
  <path
     d="m 26.338933,39.38 0.719,-0.063 3.875,9.125 -0.875,-0.156 -3.719,-8.906 z"
     id="path4"
     inkscape:connector-curvature="0"
     style="fill:#e2001a;fill-rule:evenodd" />
  <path
     d="m 21.519933,11.415 -0.152,-0.359 9.653,-2.205 0.108,0.26 -9.608,2.303 z"
     id="path6"
     inkscape:connector-curvature="0"
     style="fill:#6f4c84;fill-rule:evenodd" />
  <path
     d="m 17.369933,2.398 0.094,-0.251 0.215,-0.036 3.764,9.075 -0.049,0.004 -0.022,0.036 -4.002,-8.829 z"
     id="path8"
     inkscape:connector-curvature="0"
     style="fill:#885fa0;fill-rule:evenodd" />
  <path
     overflow="visible"
     d="m 16.813933,18.634 2.217,0.44 -7.272,17.979 -2.2170004,-0.441 z"
     id="path10"
     inkscape:connector-curvature="0"
     style="overflow:visible;fill:#885fa0" />
  <path
     overflow="visible"
     d="m 8.5039326,35.394 18.2110004,0 0,5.828 -18.2110004,0 z"
     id="path12"
     inkscape:connector-curvature="0"
     style="overflow:visible;fill:#00a2ac" />
  <path
     overflow="visible"
     d="m 5.8569326,35.738 13.8760004,-2.952 1.12,3.446 -13.8760004,2.951 z"
     id="path14"
     inkscape:connector-curvature="0"
     style="overflow:visible;fill:#543864" />
  <path
     overflow="visible"
     d="m 3.8079326,33.924 7.5320004,0.249 -1.197,2.965 -7.5310004,-0.248 z"
     id="path16"
     inkscape:connector-curvature="0"
     style="overflow:visible;fill:#00a2ac" />
  <path
     d="m 30.607933,48.492 -30.61600045,-5.499 3.27100005,-7.666 23.3840004,4.004 3.961,9.161 z"
     id="path18"
     inkscape:connector-curvature="0"
     style="fill:#00a2ac" />
  <path
     overflow="visible"
     d="m 20.495933,10.62 2.825,1.903 -5.38,7.983 -2.824,-1.903 z"
     id="path22"
     inkscape:connector-curvature="0"
     style="overflow:visible;fill:#885fa0" />
  <path
     d="m 20.245933,18.656 -2.313,0.563 -7.5,17.344 9.656,-2.5 3.094,-7.063 -2.938,-8.344 z"
     id="path24"
     inkscape:connector-curvature="0"
     style="fill:#543864" />
  <path
     d="m 17.456933,2.125 9.736,-2.125 3.916,8.984 -9.705,2.234 -3.947,-9.092 z"
     id="path26"
     inkscape:connector-curvature="0"
     style="fill:#6f4c84" />
  <path
     d="M 3.2629326,35.327 17.456933,2.126 l 3.949,9.091 -10.97,25.339 -7.1730004,-1.229 z"
     id="path28"
     inkscape:connector-curvature="0"
     style="fill:#885fa0" />
  <path
     d="m 20.088933,34.062 -9.656,2.5 16.219,2.781 1.094,-0.281 c -0.055,-0.139 -0.807,-1.854 -1.75,-4 l -5.906,-1 z"
     id="path30"
     inkscape:connector-curvature="0"
     style="fill:#006c73" />
  <path
     d="m 17.940933,19.209 3.465,-7.993 16.76,38.631 -7.558,-1.356 -12.668,-29.282 z"
     id="path32"
     inkscape:connector-curvature="0"
     style="fill:#e2001a" />
  <path
     d="m 21.404933,11.217 9.705,-2.234 16.64,38.166 -9.585,2.699 -16.76,-38.631 z"
     id="path34"
     inkscape:connector-curvature="0"
     style="fill:#b70618" />
</svg>
